<svg width="37" height="42" viewBox="0 0 37 42" fill="none" xmlns="http://www.w3.org/2000/svg">
<mask id="mask0_54_3706" style="mask-type:alpha" maskUnits="userSpaceOnUse" x="6" y="0" width="25" height="24">
<rect x="6.125" width="24" height="24" fill="#D9D9D9"/>
</mask>
<g mask="url(#mask0_54_3706)">
<path d="M12.125 19H15.125V14C15.125 13.7167 15.2208 13.4792 15.4125 13.2875C15.6042 13.0958 15.8417 13 16.125 13H20.125C20.4083 13 20.6458 13.0958 20.8375 13.2875C21.0292 13.4792 21.125 13.7167 21.125 14V19H24.125V10L18.125 5.5L12.125 10V19ZM10.125 19V10C10.125 9.68333 10.1958 9.38333 10.3375 9.1C10.4792 8.81667 10.675 8.58333 10.925 8.4L16.925 3.9C17.275 3.63333 17.675 3.5 18.125 3.5C18.575 3.5 18.975 3.63333 19.325 3.9L25.325 8.4C25.575 8.58333 25.7708 8.81667 25.9125 9.1C26.0542 9.38333 26.125 9.68333 26.125 10V19C26.125 19.55 25.9292 20.0208 25.5375 20.4125C25.1458 20.8042 24.675 21 24.125 21H20.125C19.8417 21 19.6042 20.9042 19.4125 20.7125C19.2208 20.5208 19.125 20.2833 19.125 20V15H17.125V20C17.125 20.2833 17.0292 20.5208 16.8375 20.7125C16.6458 20.9042 16.4083 21 16.125 21H12.125C11.575 21 11.1042 20.8042 10.7125 20.4125C10.3208 20.0208 10.125 19.55 10.125 19Z" fill="#979797"/>
</g>
<path d=
"M7.685 28.66V37H6.317V33.352H2.393V37H1.025V28.66H2.393V32.236H6.317V28.66H7.685ZM12.3539 37.108C11.7299 37.108 11.1659 36.968 10.6619 36.688C10.1579 36.4 9.76194 36 9.47394 35.488C9.18594 34.968 9.04194 34.368 9.04194 33.688C9.04194 33.016 9.18994 32.42 9.48594 31.9C9.78194 31.38 10.1859 30.98 10.6979 30.7C11.2099 30.42 11.7819 30.28 12.4139 30.28C13.0459 30.28 13.6179 30.42 14.1299 30.7C14.6419 30.98 15.0459 31.38 15.3419 31.9C15.6379 32.42 15.7859 33.016 15.7859 33.688C15.7859 34.36 15.6339 34.956 15.3299 35.476C15.0259 35.996 14.6099 36.4 14.0819 36.688C13.5619 36.968 12.9859 37.108 12.3539 37.108ZM12.3539 35.92C12.7059 35.92 13.0339 35.836 13.3379 35.668C13.6499 35.5 13.9019 35.248 14.0939 34.912C14.2859 34.576 14.3819 34.168 14.3819 33.688C14.3819 33.208 14.2899 32.804 14.1059 32.476C13.9219 32.14 13.6779 31.888 13.3739 31.72C13.0699 31.552 12.7419 31.468 12.3899 31.468C12.0379 31.468 11.7099 31.552 11.4059 31.72C11.1099 31.888 10.8739 32.14 10.6979 32.476C10.5219 32.804 10.4339 33.208 10.4339 33.688C10.4339 34.4 10.6139 34.952 10.9739 35.344C11.3419 35.728 11.8019 35.92 12.3539 35.92ZM25.1423 30.28C25.6623 30.28 26.1263 30.388 26.5343 30.604C26.9503 30.82 27.2743 31.14 27.5063 31.564C27.7463 31.988 27.8663 32.5 27.8663 33.1V37H26.5103V33.304C26.5103 32.712 26.3623 32.26 26.0663 31.948C25.7703 31.628 25.3663 31.468 24.8543 31.468C24.3423 31.468 23.9343 31.628 23.6303 31.948C23.3343 32.26 23.1863 32.712 23.1863 33.304V37H21.8303V33.304C21.8303 32.712 21.6823 32.26 21.3863 31.948C21.0903 31.628 20.6863 31.468 20.1743 31.468C19.6623 31.468 19.2543 31.628 18.9503 31.948C18.6543 32.26 18.5063 32.712 18.5063 33.304V37H17.1383V30.388H18.5063V31.144C18.7303 30.872 19.0143 30.66 19.3583 30.508C19.7023 30.356 20.0703 30.28 20.4623 30.28C20.9903 30.28 21.4623 30.392 21.8783 30.616C22.2943 30.84 22.6143 31.164 22.8383 31.588C23.0383 31.188 23.3503 30.872 23.7743 30.64C24.1983 30.4 24.6543 30.28 25.1423 30.28ZM35.667 33.532C35.667 33.78 35.651 34.004 35.619 34.204H30.567C30.607 34.732 30.803 35.156 31.155 35.476C31.507 35.796 31.939 35.956 32.451 35.956C33.187 35.956 33.707 35.648 34.011 35.032H35.487C35.287 35.64 34.923 36.14 34.395 36.532C33.875 36.916 33.227 37.108 32.451 37.108C31.819 37.108 31.251 36.968 30.747 36.688C30.251 36.4 29.859 36 29.571 35.488C29.291 34.968 29.151 34.368 29.151 33.688C29.151 33.008 29.287 32.412 29.559 31.9C29.839 31.38 30.227 30.98 30.723 30.7C31.227 30.42 31.803 30.28 32.451 30.28C33.075 30.28 33.631 30.416 34.119 30.688C34.607 30.96 34.987 31.344 35.259 31.84C35.531 32.328 35.667 32.892 35.667 33.532ZM34.239 33.1C34.231 32.596 34.051 32.192 33.699 31.888C33.347 31.584 32.911 31.432 32.391 31.432C31.919 31.432 31.515 31.584 31.179 31.888C30.843 32.184 30.643 32.588 30.579 33.1H34.239Z"
 fill="#979797"/>
</svg>
