<svg width="99" height="56" viewBox="0 0 99 56" fill="none" xmlns="http://www.w3.org/2000/svg">
<rect width="98.25" height="56" transform="translate(0.25)" fill="white"/>
<mask id="mask0_54_3622" style="mask-type:alpha" maskUnits="userSpaceOnUse" x="37" y="7" width="25" height="24">
<rect x="37.375" y="7" width="24" height="24" fill="#D9D9D9"/>
</mask>
<g mask="url(#mask0_54_3622)">
<path d="M49.375 24C49.6583 24 49.8958 23.9042 50.0875 23.7125C50.2792 23.5208 50.375 23.2833 50.375 23C50.375 22.7167 50.2792 22.4792 50.0875 22.2875C49.8958 22.0958 49.6583 22 49.375 22C49.0917 22 48.8542 22.0958 48.6625 22.2875C48.4708 22.4792 48.375 22.7167 48.375 23C48.375 23.2833 48.4708 23.5208 48.6625 23.7125C48.8542 23.9042 49.0917 24 49.375 24ZM49.375 20C49.6583 20 49.8958 19.9042 50.0875 19.7125C50.2792 19.5208 50.375 19.2833 50.375 19C50.375 18.7167 50.2792 18.4792 50.0875 18.2875C49.8958 18.0958 49.6583 18 49.375 18C49.0917 18 48.8542 18.0958 48.6625 18.2875C48.4708 18.4792 48.375 18.7167 48.375 19C48.375 19.2833 48.4708 19.5208 48.6625 19.7125C48.8542 19.9042 49.0917 20 49.375 20ZM49.375 16C49.6583 16 49.8958 15.9042 50.0875 15.7125C50.2792 15.5208 50.375 15.2833 50.375 15C50.375 14.7167 50.2792 14.4792 50.0875 14.2875C49.8958 14.0958 49.6583 14 49.375 14C49.0917 14 48.8542 14.0958 48.6625 14.2875C48.4708 14.4792 48.375 14.7167 48.375 15C48.375 15.2833 48.4708 15.5208 48.6625 15.7125C48.8542 15.9042 49.0917 16 49.375 16ZM57.375 27H41.375C40.825 27 40.3542 26.8042 39.9625 26.4125C39.5708 26.0208 39.375 25.55 39.375 25V21C39.925 21 40.3958 20.8042 40.7875 20.4125C41.1792 20.0208 41.375 19.55 41.375 19C41.375 18.45 41.1792 17.9792 40.7875 17.5875C40.3958 17.1958 39.925 17 39.375 17V13C39.375 12.45 39.5708 11.9792 39.9625 11.5875C40.3542 11.1958 40.825 11 41.375 11H57.375C57.925 11 58.3958 11.1958 58.7875 11.5875C59.1792 11.9792 59.375 12.45 59.375 13V17C58.825 17 58.3542 17.1958 57.9625 17.5875C57.5708 17.9792 57.375 18.45 57.375 19C57.375 19.55 57.5708 20.0208 57.9625 20.4125C58.3542 20.8042 58.825 21 59.375 21V25C59.375 25.55 59.1792 26.0208 58.7875 26.4125C58.3958 26.8042 57.925 27 57.375 27ZM57.375 25V22.45C56.7583 22.0833 56.2708 21.5958 55.9125 20.9875C55.5542 20.3792 55.375 19.7167 55.375 19C55.375 18.2833 55.5542 17.6208 55.9125 17.0125C56.2708 16.4042 56.7583 15.9167 57.375 15.55V13H41.375V15.55C41.9917 15.9167 42.4792 16.4042 42.8375 17.0125C43.1958 17.6208 43.375 18.2833 43.375 19C43.375 19.7167 43.1958 20.3792 42.8375 20.9875C42.4792 21.5958 41.9917 22.0833 41.375 22.45V25H57.375Z" fill="#979797"/>
</g>
<path d="M34.947 35.636V36.524H32.667V44H31.575V36.524H29.283V35.636H34.947ZM36.8552 36.356C36.6472 36.356 36.4712 36.284 36.3272 36.14C36.1832 35.996 36.1112 35.82 36.1112 35.612C36.1112 35.404 36.1832 35.228 36.3272 35.084C36.4712 34.94 36.6472 34.868 36.8552 34.868C37.0552 34.868 37.2232 34.94 37.3592 35.084C37.5032 35.228 37.5752 35.404 37.5752 35.612C37.5752 35.82 37.5032 35.996 37.3592 36.14C37.2232 36.284 37.0552 36.356 36.8552 36.356ZM37.3832 37.424V44H36.2912V37.424H37.3832ZM38.8363 40.7C38.8363 40.02 38.9723 39.428 39.2443 38.924C39.5163 38.412 39.8923 38.016 40.3723 37.736C40.8603 37.456 41.4163 37.316 42.0403 37.316C42.8483 37.316 43.5123 37.512 44.0323 37.904C44.5603 38.296 44.9083 38.84 45.0763 39.536H43.9003C43.7883 39.136 43.5683 38.82 43.2403 38.588C42.9203 38.356 42.5203 38.24 42.0403 38.24C41.4163 38.24 40.9123 38.456 40.5283 38.888C40.1443 39.312 39.9523 39.916 39.9523 40.7C39.9523 41.492 40.1443 42.104 40.5283 42.536C40.9123 42.968 41.4163 43.184 42.0403 43.184C42.5203 43.184 42.9203 43.072 43.2403 42.848C43.5603 42.624 43.7803 42.304 43.9003 41.888H45.0763C44.9003 42.56 44.5483 43.1 44.0203 43.508C43.4923 43.908 42.8323 44.108 42.0403 44.108C41.4163 44.108 40.8603 43.968 40.3723 43.688C39.8923 43.408 39.5163 43.012 39.2443 42.5C38.9723 41.988 38.8363 41.388 38.8363 40.7ZM50.2054 44L47.6254 41.096V44H46.5334V35.12H47.6254V40.34L50.1574 37.424H51.6814L48.5854 40.7L51.6934 44H50.2054ZM58.7092 40.46C58.7092 40.668 58.6972 40.888 58.6732 41.12H53.4172C53.4572 41.768 53.6772 42.276 54.0772 42.644C54.4852 43.004 54.9772 43.184 55.5532 43.184C56.0252 43.184 56.4172 43.076 56.7292 42.86C57.0492 42.636 57.2732 42.34 57.4012 41.972H58.5772C58.4012 42.604 58.0492 43.12 57.5212 43.52C56.9932 43.912 56.3372 44.108 55.5532 44.108C54.9292 44.108 54.3692 43.968 53.8732 43.688C53.3852 43.408 53.0012 43.012 52.7212 42.5C52.4412 41.98 52.3012 41.38 52.3012 40.7C52.3012 40.02 52.4372 39.424 52.7092 38.912C52.9812 38.4 53.3612 38.008 53.8492 37.736C54.3452 37.456 54.9132 37.316 55.5532 37.316C56.1772 37.316 56.7292 37.452 57.2092 37.724C57.6892 37.996 58.0572 38.372 58.3132 38.852C58.5772 39.324 58.7092 39.86 58.7092 40.46ZM57.5812 40.232C57.5812 39.816 57.4892 39.46 57.3052 39.164C57.1212 38.86 56.8692 38.632 56.5492 38.48C56.2372 38.32 55.8892 38.24 55.5052 38.24C54.9532 38.24 54.4812 38.416 54.0892 38.768C53.7052 39.12 53.4852 39.608 53.4292 40.232H57.5812ZM61.4826 38.324V42.2C61.4826 42.52 61.5506 42.748 61.6866 42.884C61.8226 43.012 62.0586 43.076 62.3946 43.076H63.1986V44H62.2146C61.6066 44 61.1506 43.86 60.8466 43.58C60.5426 43.3 60.3906 42.84 60.3906 42.2V38.324H59.5386V37.424H60.3906V35.768H61.4826V37.424H63.1986V38.324H61.4826ZM66.8497 44.108C66.3457 44.108 65.8937 44.024 65.4937 43.856C65.0937 43.68 64.7777 43.44 64.5457 43.136C64.3137 42.824 64.1857 42.468 64.1617 42.068H65.2897C65.3217 42.396 65.4737 42.664 65.7457 42.872C66.0257 43.08 66.3897 43.184 66.8377 43.184C67.2537 43.184 67.5817 43.092 67.8217 42.908C68.0617 42.724 68.1817 42.492 68.1817 42.212C68.1817 41.924 68.0537 41.712 67.7977 41.576C67.5417 41.432 67.1457 41.292 66.6097 41.156C66.1217 41.028 65.7217 40.9 65.4097 40.772C65.1057 40.636 64.8417 40.44 64.6177 40.184C64.4017 39.92 64.2937 39.576 64.2937 39.152C64.2937 38.816 64.3937 38.508 64.5937 38.228C64.7937 37.948 65.0777 37.728 65.4457 37.568C65.8137 37.4 66.2337 37.316 66.7057 37.316C67.4337 37.316 68.0217 37.5 68.4697 37.868C68.9177 38.236 69.1577 38.74 69.1897 39.38H68.0977C68.0737 39.036 67.9337 38.76 67.6777 38.552C67.4297 38.344 67.0937 38.24 66.6697 38.24C66.2777 38.24 65.9657 38.324 65.7337 38.492C65.5017 38.66 65.3857 38.88 65.3857 39.152C65.3857 39.368 65.4537 39.548 65.5897 39.692C65.7337 39.828 65.9097 39.94 66.1177 40.028C66.3337 40.108 66.6297 40.2 67.0057 40.304C67.4777 40.432 67.8617 40.56 68.1577 40.688C68.4537 40.808 68.7057 40.992 68.9137 41.24C69.1297 41.488 69.2417 41.812 69.2497 42.212C69.2497 42.572 69.1497 42.896 68.9497 43.184C68.7497 43.472 68.4657 43.7 68.0977 43.868C67.7377 44.028 67.3217 44.108 66.8497 44.108Z" fill="#979797"/>
</svg>
