<svg width="52" height="52" viewBox="0 0 52 52" fill="none" xmlns="http://www.w3.org/2000/svg">
<rect width="52" height="52" rx="6.5" fill="white"/>
<g clip-path="url(#clip0_54_3523)">
<path d="M11.5555 33.2222C11.5555 34.8201 12.2597 36.2375 13.3611 37.2305V40.4444C13.3611 41.4375 14.1736 42.25 15.1666 42.25H16.9722C17.451 42.25 17.9103 42.0597 18.2489 41.7211C18.5875 41.3825 18.7777 40.9233 18.7777 40.4444V38.6388H33.2222V40.4444C33.2222 40.9233 33.4124 41.3825 33.751 41.7211C34.0896 42.0597 34.5489 42.25 35.0277 42.25H36.8333C37.8263 42.25 38.6388 41.4375 38.6388 40.4444V37.2305C39.7402 36.2375 40.4444 34.8201 40.4444 33.2222V15.1666C40.4444 8.84717 33.9805 7.9444 26 7.9444C18.0194 7.9444 11.5555 8.84717 11.5555 15.1666V33.2222ZM17.875 35.0277C16.3763 35.0277 15.1666 33.818 15.1666 32.3194C15.1666 30.8208 16.3763 29.6111 17.875 29.6111C19.3736 29.6111 20.5833 30.8208 20.5833 32.3194C20.5833 33.818 19.3736 35.0277 17.875 35.0277ZM34.125 35.0277C32.6263 35.0277 31.4166 33.818 31.4166 32.3194C31.4166 30.8208 32.6263 29.6111 34.125 29.6111C35.6236 29.6111 36.8333 30.8208 36.8333 32.3194C36.8333 33.818 35.6236 35.0277 34.125 35.0277ZM36.8333 24.1944H15.1666V15.1666H36.8333V24.1944Z" fill="#F5D700"/>
</g>
<defs>
<clipPath id="clip0_54_3523">
<rect width="43.3333" height="43.3333" fill="white" transform="translate(4.33334 4.33334)"/>
</clipPath>
</defs>
</svg>
