<svg width="37" height="37" viewBox="0 0 37 37" fill="none" xmlns="http://www.w3.org/2000/svg">
<rect width="37" height="37" rx="4.625" fill="#F5D700"/>
<g clip-path="url(#clip0_54_2523)">
<path d="M8.22217 23.6388C8.22217 24.7758 8.72321 25.7843 9.50689 26.4909V28.7777C9.50689 29.4843 10.085 30.0624 10.7916 30.0624H12.0763C12.4171 30.0624 12.7438 29.9271 12.9848 29.6861C13.2257 29.4452 13.3611 29.1184 13.3611 28.7777V27.493H23.6388V28.7777C23.6388 29.1184 23.7742 29.4452 24.0151 29.6861C24.2561 29.9271 24.5828 30.0624 24.9236 30.0624H26.2083C26.9149 30.0624 27.493 29.4843 27.493 28.7777V26.4909C28.2767 25.7843 28.7777 24.7758 28.7777 23.6388V10.7916C28.7777 6.29507 24.1784 5.65271 18.4999 5.65271C12.8215 5.65271 8.22217 6.29507 8.22217 10.7916V23.6388ZM12.7187 24.9235C11.6524 24.9235 10.7916 24.0628 10.7916 22.9965C10.7916 21.9301 11.6524 21.0694 12.7187 21.0694C13.785 21.0694 14.6458 21.9301 14.6458 22.9965C14.6458 24.0628 13.785 24.9235 12.7187 24.9235ZM24.2812 24.9235C23.2149 24.9235 22.3541 24.0628 22.3541 22.9965C22.3541 21.9301 23.2149 21.0694 24.2812 21.0694C25.3475 21.0694 26.2083 21.9301 26.2083 22.9965C26.2083 24.0628 25.3475 24.9235 24.2812 24.9235ZM26.2083 17.2152H10.7916V10.7916H26.2083V17.2152Z" fill="white"/>
</g>
<defs>
<clipPath id="clip0_54_2523">
<rect width="30.8333" height="30.8333" fill="white" transform="translate(3.08337 3.08331)"/>
</clipPath>
</defs>
</svg>
